G04 #@! TF.GenerationSoftware,KiCad,Pcbnew,(5.1.5-0-10_14)*
G04 #@! TF.CreationDate,2019-12-02T16:33:46+08:00*
G04 #@! TF.ProjectId,pa1010d-breakout-panelized,70613130-3130-4642-9d62-7265616b6f75,V1.0*
G04 #@! TF.SameCoordinates,Original*
G04 #@! TF.FileFunction,Paste,Top*
G04 #@! TF.FilePolarity,Positive*
%FSLAX46Y46*%
G04 Gerber Fmt 4.6, Leading zero omitted, Abs format (unit mm)*
G04 Created by KiCad (PCBNEW (5.1.5-0-10_14)) date 2019-12-02 16:33:46*
%MOMM*%
%LPD*%
G04 APERTURE LIST*
%ADD10R,1.200000X0.800000*%
G04 APERTURE END LIST*
D10*
X183924000Y-117803000D03*
X183924000Y-119403000D03*
X183924000Y-122303000D03*
X183924000Y-123903000D03*
X183924000Y-125503000D03*
X193624000Y-125503000D03*
X193624000Y-123903000D03*
X193624000Y-122303000D03*
X193624000Y-119403000D03*
X193624000Y-117803000D03*
X162924000Y-117803000D03*
X162924000Y-119403000D03*
X162924000Y-122303000D03*
X162924000Y-123903000D03*
X162924000Y-125503000D03*
X172624000Y-125503000D03*
X172624000Y-123903000D03*
X172624000Y-122303000D03*
X172624000Y-119403000D03*
X172624000Y-117803000D03*
X141924000Y-117803000D03*
X141924000Y-119403000D03*
X141924000Y-122303000D03*
X141924000Y-123903000D03*
X141924000Y-125503000D03*
X151624000Y-125503000D03*
X151624000Y-123903000D03*
X151624000Y-122303000D03*
X151624000Y-119403000D03*
X151624000Y-117803000D03*
X120924000Y-117803000D03*
X120924000Y-119403000D03*
X120924000Y-122303000D03*
X120924000Y-123903000D03*
X120924000Y-125503000D03*
X130624000Y-125503000D03*
X130624000Y-123903000D03*
X130624000Y-122303000D03*
X130624000Y-119403000D03*
X130624000Y-117803000D03*
X183924000Y-92803000D03*
X183924000Y-94403000D03*
X183924000Y-97303000D03*
X183924000Y-98903000D03*
X183924000Y-100503000D03*
X193624000Y-100503000D03*
X193624000Y-98903000D03*
X193624000Y-97303000D03*
X193624000Y-94403000D03*
X193624000Y-92803000D03*
X162924000Y-92803000D03*
X162924000Y-94403000D03*
X162924000Y-97303000D03*
X162924000Y-98903000D03*
X162924000Y-100503000D03*
X172624000Y-100503000D03*
X172624000Y-98903000D03*
X172624000Y-97303000D03*
X172624000Y-94403000D03*
X172624000Y-92803000D03*
X141924000Y-92803000D03*
X141924000Y-94403000D03*
X141924000Y-97303000D03*
X141924000Y-98903000D03*
X141924000Y-100503000D03*
X151624000Y-100503000D03*
X151624000Y-98903000D03*
X151624000Y-97303000D03*
X151624000Y-94403000D03*
X151624000Y-92803000D03*
X120924000Y-92803000D03*
X120924000Y-94403000D03*
X120924000Y-97303000D03*
X120924000Y-98903000D03*
X120924000Y-100503000D03*
X130624000Y-100503000D03*
X130624000Y-98903000D03*
X130624000Y-97303000D03*
X130624000Y-94403000D03*
X130624000Y-92803000D03*
X183924000Y-67803000D03*
X183924000Y-69403000D03*
X183924000Y-72303000D03*
X183924000Y-73903000D03*
X183924000Y-75503000D03*
X193624000Y-75503000D03*
X193624000Y-73903000D03*
X193624000Y-72303000D03*
X193624000Y-69403000D03*
X193624000Y-67803000D03*
X162924000Y-67803000D03*
X162924000Y-69403000D03*
X162924000Y-72303000D03*
X162924000Y-73903000D03*
X162924000Y-75503000D03*
X172624000Y-75503000D03*
X172624000Y-73903000D03*
X172624000Y-72303000D03*
X172624000Y-69403000D03*
X172624000Y-67803000D03*
X141924000Y-67803000D03*
X141924000Y-69403000D03*
X141924000Y-72303000D03*
X141924000Y-73903000D03*
X141924000Y-75503000D03*
X151624000Y-75503000D03*
X151624000Y-73903000D03*
X151624000Y-72303000D03*
X151624000Y-69403000D03*
X151624000Y-67803000D03*
X120924000Y-67803000D03*
X120924000Y-69403000D03*
X120924000Y-72303000D03*
X120924000Y-73903000D03*
X120924000Y-75503000D03*
X130624000Y-75503000D03*
X130624000Y-73903000D03*
X130624000Y-72303000D03*
X130624000Y-69403000D03*
X130624000Y-67803000D03*
X183924000Y-42803000D03*
X183924000Y-44403000D03*
X183924000Y-47303000D03*
X183924000Y-48903000D03*
X183924000Y-50503000D03*
X193624000Y-50503000D03*
X193624000Y-48903000D03*
X193624000Y-47303000D03*
X193624000Y-44403000D03*
X193624000Y-42803000D03*
X162924000Y-42803000D03*
X162924000Y-44403000D03*
X162924000Y-47303000D03*
X162924000Y-48903000D03*
X162924000Y-50503000D03*
X172624000Y-50503000D03*
X172624000Y-48903000D03*
X172624000Y-47303000D03*
X172624000Y-44403000D03*
X172624000Y-42803000D03*
X141924000Y-42803000D03*
X141924000Y-44403000D03*
X141924000Y-47303000D03*
X141924000Y-48903000D03*
X141924000Y-50503000D03*
X151624000Y-50503000D03*
X151624000Y-48903000D03*
X151624000Y-47303000D03*
X151624000Y-44403000D03*
X151624000Y-42803000D03*
X130624000Y-42803000D03*
X130624000Y-44403000D03*
X130624000Y-47303000D03*
X130624000Y-48903000D03*
X130624000Y-50503000D03*
X120924000Y-50503000D03*
X120924000Y-48903000D03*
X120924000Y-47303000D03*
X120924000Y-44403000D03*
X120924000Y-42803000D03*
M02*
