M48
; DRILL file {KiCad (5.1.5-0-10_14)} date 2019 December 02, Monday 16:33:49
; FORMAT={-:-/ absolute / inch / decimal}
; #@! TF.CreationDate,2019-12-02T16:33:49+08:00
; #@! TF.GenerationSoftware,Kicad,Pcbnew,(5.1.5-0-10_14)
FMAT,2
INCH
T1C0.0197
T2C0.0394
T3C0.0197
T4C0.1181
T5C0.1260
%
G90
G05
T1
X4.6317Y-2.232
X4.6317Y-3.2163
X4.6317Y-4.2006
X4.6317Y-5.1848
X4.6817Y-1.6455
X4.6817Y-2.6297
X4.6817Y-3.614
X4.6817Y-4.5982
X5.073Y-1.832
X5.073Y-2.8163
X5.073Y-3.8006
X5.073Y-4.7848
X5.1317Y-1.812
X5.1317Y-2.7963
X5.1317Y-3.7806
X5.1317Y-4.7648
X5.4585Y-2.232
X5.4585Y-3.2163
X5.4585Y-4.2006
X5.4585Y-5.1848
X5.5085Y-1.6455
X5.5085Y-2.6297
X5.5085Y-3.614
X5.5085Y-4.5982
X5.8998Y-1.832
X5.8998Y-2.8163
X5.8998Y-3.8006
X5.8998Y-4.7848
X5.9585Y-1.812
X5.9585Y-2.7963
X5.9585Y-3.7806
X5.9585Y-4.7648
X6.2853Y-2.232
X6.2853Y-3.2163
X6.2853Y-4.2006
X6.2853Y-5.1848
X6.3353Y-1.6455
X6.3353Y-2.6297
X6.3353Y-3.614
X6.3353Y-4.5982
X6.7266Y-1.832
X6.7266Y-2.8163
X6.7266Y-3.8006
X6.7266Y-4.7848
X6.7853Y-1.812
X6.7853Y-2.7963
X6.7853Y-3.7806
X6.7853Y-4.7648
X7.112Y-2.232
X7.112Y-3.2163
X7.112Y-4.2006
X7.112Y-5.1848
X7.162Y-1.6455
X7.162Y-2.6297
X7.162Y-3.614
X7.162Y-4.5982
X7.5533Y-1.832
X7.5533Y-2.8163
X7.5533Y-3.8006
X7.5533Y-4.7848
X7.612Y-1.812
X7.612Y-2.7963
X7.612Y-3.7806
X7.612Y-4.7648
T2
X4.5417Y-3.4606
X4.5417Y-3.5606
X4.5417Y-3.6606
X4.5417Y-3.7606
X4.5417Y-3.8606
X4.5417Y-3.9606
X4.5417Y-4.0606
X4.5417Y-4.1606
X4.5417Y-2.4763
X4.5417Y-2.5763
X4.5417Y-2.6763
X4.5417Y-2.7763
X4.5417Y-2.8763
X4.5417Y-2.9763
X4.5417Y-3.0763
X4.5417Y-3.1763
X5.3685Y-4.4448
X5.3685Y-4.5448
X5.3685Y-4.6448
X5.3685Y-4.7448
X5.3685Y-4.8448
X5.3685Y-4.9448
X5.3685Y-5.0448
X5.3685Y-5.1448
X6.1953Y-1.492
X6.1953Y-1.592
X6.1953Y-1.692
X6.1953Y-1.792
X6.1953Y-1.892
X6.1953Y-1.992
X6.1953Y-2.092
X6.1953Y-2.192
X5.3685Y-3.4606
X5.3685Y-3.5606
X5.3685Y-3.6606
X5.3685Y-3.7606
X5.3685Y-3.8606
X5.3685Y-3.9606
X5.3685Y-4.0606
X5.3685Y-4.1606
X5.3685Y-2.4763
X5.3685Y-2.5763
X5.3685Y-2.6763
X5.3685Y-2.7763
X5.3685Y-2.8763
X5.3685Y-2.9763
X5.3685Y-3.0763
X5.3685Y-3.1763
X6.1953Y-4.4448
X6.1953Y-4.5448
X6.1953Y-4.6448
X6.1953Y-4.7448
X6.1953Y-4.8448
X6.1953Y-4.9448
X6.1953Y-5.0448
X6.1953Y-5.1448
X6.1953Y-3.4606
X6.1953Y-3.5606
X6.1953Y-3.6606
X6.1953Y-3.7606
X6.1953Y-3.8606
X6.1953Y-3.9606
X6.1953Y-4.0606
X6.1953Y-4.1606
X6.1953Y-2.4763
X6.1953Y-2.5763
X6.1953Y-2.6763
X6.1953Y-2.7763
X6.1953Y-2.8763
X6.1953Y-2.9763
X6.1953Y-3.0763
X6.1953Y-3.1763
X5.3685Y-1.492
X5.3685Y-1.592
X5.3685Y-1.692
X5.3685Y-1.792
X5.3685Y-1.892
X5.3685Y-1.992
X5.3685Y-2.092
X5.3685Y-2.192
X7.022Y-1.492
X7.022Y-1.592
X7.022Y-1.692
X7.022Y-1.792
X7.022Y-1.892
X7.022Y-1.992
X7.022Y-2.092
X7.022Y-2.192
X4.5417Y-1.492
X4.5417Y-1.592
X4.5417Y-1.692
X4.5417Y-1.792
X4.5417Y-1.892
X4.5417Y-1.992
X4.5417Y-2.092
X4.5417Y-2.192
X7.022Y-4.4448
X7.022Y-4.5448
X7.022Y-4.6448
X7.022Y-4.7448
X7.022Y-4.8448
X7.022Y-4.9448
X7.022Y-5.0448
X7.022Y-5.1448
X7.022Y-3.4606
X7.022Y-3.5606
X7.022Y-3.6606
X7.022Y-3.7606
X7.022Y-3.8606
X7.022Y-3.9606
X7.022Y-4.0606
X7.022Y-4.1606
X7.022Y-2.4763
X7.022Y-2.5763
X7.022Y-2.6763
X7.022Y-2.7763
X7.022Y-2.8763
X7.022Y-2.9763
X7.022Y-3.0763
X7.022Y-3.1763
X4.5417Y-4.4448
X4.5417Y-4.5448
X4.5417Y-4.6448
X4.5417Y-4.7448
X4.5417Y-4.8448
X4.5417Y-4.9448
X4.5417Y-5.0448
X4.5417Y-5.1448
T3
X6.8602Y-2.7657
X6.8602Y-2.7953
X6.8602Y-2.8248
X6.9193Y-2.7657
X6.9193Y-2.7953
X6.9193Y-2.8248
X4.7736Y-2.2933
X4.7736Y-2.3524
X4.8031Y-2.2933
X4.8031Y-2.3524
X4.8327Y-2.2933
X4.8327Y-2.3524
X6.4272Y-4.2618
X6.4272Y-4.3209
X6.4567Y-4.2618
X6.4567Y-4.3209
X6.4862Y-4.2618
X6.4862Y-4.3209
X5.6004Y-2.2933
X5.6004Y-2.3524
X5.6299Y-2.2933
X5.6299Y-2.3524
X5.6594Y-2.2933
X5.6594Y-2.3524
X7.2539Y-4.2618
X7.2539Y-4.3209
X7.2835Y-4.2618
X7.2835Y-4.3209
X7.313Y-4.2618
X7.313Y-4.3209
X5.2067Y-3.75
X5.2067Y-3.7795
X5.2067Y-3.8091
X5.2657Y-3.75
X5.2657Y-3.7795
X5.2657Y-3.8091
X6.4272Y-2.2933
X6.4272Y-2.3524
X6.4567Y-2.2933
X6.4567Y-2.3524
X6.4862Y-2.2933
X6.4862Y-2.3524
X6.0335Y-3.75
X6.0335Y-3.7795
X6.0335Y-3.8091
X6.0925Y-3.75
X6.0925Y-3.7795
X6.0925Y-3.8091
X7.2539Y-2.2933
X7.2539Y-2.3524
X7.2835Y-2.2933
X7.2835Y-2.3524
X7.313Y-2.2933
X7.313Y-2.3524
X5.2067Y-1.7815
X5.2067Y-1.811
X5.2067Y-1.8406
X5.2657Y-1.7815
X5.2657Y-1.811
X5.2657Y-1.8406
X6.8602Y-3.75
X6.8602Y-3.7795
X6.8602Y-3.8091
X6.9193Y-3.75
X6.9193Y-3.7795
X6.9193Y-3.8091
X4.7736Y-3.2776
X4.7736Y-3.3366
X4.8031Y-3.2776
X4.8031Y-3.3366
X4.8327Y-3.2776
X4.8327Y-3.3366
X6.0335Y-1.7815
X6.0335Y-1.811
X6.0335Y-1.8406
X6.0925Y-1.7815
X6.0925Y-1.811
X6.0925Y-1.8406
X5.6004Y-3.2776
X5.6004Y-3.3366
X5.6299Y-3.2776
X5.6299Y-3.3366
X5.6594Y-3.2776
X5.6594Y-3.3366
X6.8602Y-1.7815
X6.8602Y-1.811
X6.8602Y-1.8406
X6.9193Y-1.7815
X6.9193Y-1.811
X6.9193Y-1.8406
X5.2067Y-4.7343
X5.2067Y-4.7638
X5.2067Y-4.7933
X5.2657Y-4.7343
X5.2657Y-4.7638
X5.2657Y-4.7933
X6.4272Y-3.2776
X6.4272Y-3.3366
X6.4567Y-3.2776
X6.4567Y-3.3366
X6.4862Y-3.2776
X6.4862Y-3.3366
X6.0335Y-4.7343
X6.0335Y-4.7638
X6.0335Y-4.7933
X6.0925Y-4.7343
X6.0925Y-4.7638
X6.0925Y-4.7933
X7.2539Y-3.2776
X7.2539Y-3.3366
X7.2835Y-3.2776
X7.2835Y-3.3366
X7.313Y-3.2776
X7.313Y-3.3366
X5.2067Y-2.7657
X5.2067Y-2.7953
X5.2067Y-2.8248
X5.2657Y-2.7657
X5.2657Y-2.7953
X5.2657Y-2.8248
X6.8602Y-4.7343
X6.8602Y-4.7638
X6.8602Y-4.7933
X6.9193Y-4.7343
X6.9193Y-4.7638
X6.9193Y-4.7933
X4.7736Y-4.2618
X4.7736Y-4.3209
X4.8031Y-4.2618
X4.8031Y-4.3209
X4.8327Y-4.2618
X4.8327Y-4.3209
X6.0335Y-2.7657
X6.0335Y-2.7953
X6.0335Y-2.8248
X6.0925Y-2.7657
X6.0925Y-2.7953
X6.0925Y-2.8248
X5.6004Y-4.2618
X5.6004Y-4.3209
X5.6299Y-4.2618
X5.6299Y-4.3209
X5.6594Y-4.2618
X5.6594Y-4.3209
T4
X4.9517Y-1.817
X6.6053Y-1.817
X6.6053Y-4.7698
X5.7785Y-1.817
X4.9517Y-2.8013
X7.432Y-1.817
X6.6053Y-2.8013
X7.432Y-4.7698
X5.7785Y-2.8013
X7.432Y-2.8013
X5.7785Y-4.7698
X4.9517Y-4.7698
X7.432Y-3.7856
X6.6053Y-3.7856
X5.7785Y-3.7856
X4.9517Y-3.7856
T5
X5.9055Y-1.4961
X5.9055Y-3.4646
X7.5591Y-2.1654
X7.5591Y-4.1339
X5.0787Y-2.4803
X5.0787Y-4.4488
X6.7323Y-3.1496
X6.7323Y-5.1181
X7.5591Y-2.4803
X5.9055Y-2.1654
X7.5591Y-4.4488
X5.9055Y-4.1339
X6.7323Y-1.4961
X6.7323Y-3.4646
X5.0787Y-3.1496
X5.0787Y-5.1181
X5.9055Y-2.4803
X5.9055Y-4.4488
X7.5591Y-3.1496
X7.5591Y-5.1181
X5.0787Y-3.4646
X6.7323Y-2.1654
X5.0787Y-1.4961
X5.0787Y-2.1654
X6.7323Y-4.1339
X7.5591Y-1.4961
X7.5591Y-3.4646
X5.9055Y-3.1496
X5.9055Y-5.1181
X6.7323Y-2.4803
X6.7323Y-4.4488
X5.0787Y-4.1339
T0
M30
